<svg width="22" height="22" viewBox="0 0 22 22" fill="none" xmlns="http://www.w3.org/2000/svg">
<path d="M19.2866 12.1734L18.4433 11.3484L11.3391 18.4434L12.1916 19.2959C12.9066 20.0109 13.6491 20.3684 14.3824 20.3684C15.1158 20.3684 15.8583 20.0109 16.5733 19.2959L19.2866 16.5826C20.7441 15.1159 20.7441 13.6401 19.2866 12.1734Z" fill="#0066FF"/>
<path d="M9.79911 2.68582C8.35995 1.24665 6.84745 1.24665 5.40828 2.68582L2.68578 5.39915C1.25578 6.83832 1.25578 8.35082 2.68578 9.78999L3.52911 10.6333L10.6333 3.52915L9.79911 2.68582Z" fill="#0066FF"/>
<path opacity="0.4" d="M19.9926 3.61159C18.7917 6.60909 16.0509 10.5233 13.4384 13.0808C13.0626 10.7158 11.1742 8.86409 8.79089 8.53409C11.3576 5.91242 15.2992 3.13492 18.3059 1.92492C18.8376 1.72325 19.3692 1.87909 19.6992 2.20909C20.0476 2.55742 20.2126 3.07992 19.9926 3.61159Z" fill="#0066FF"/>
<path d="M13.4384 13.0808C12.9801 13.53 12.5217 13.9425 12.0817 14.2908L10.2759 15.7392C10.0467 15.9042 9.81756 16.0417 9.56089 16.1517C9.56089 15.9775 9.54256 15.8033 9.52423 15.62C9.42339 14.8592 9.07506 14.135 8.46089 13.5208C7.82839 12.8975 7.07673 12.54 6.29756 12.4392C6.11423 12.4208 5.92173 12.4117 5.74756 12.4208C5.84839 12.1367 6.00423 11.8708 6.19673 11.6508L7.62672 9.84501C7.96589 9.41418 8.36006 8.97418 8.79089 8.53418C11.1742 8.86418 13.0626 10.7158 13.4384 13.0808Z" fill="#0066FF"/>
<path opacity="0.4" d="M9.56078 16.1517C9.56078 17.16 9.17578 18.1225 8.44245 18.8467C7.88328 19.415 7.13161 19.8 6.21495 19.91L3.96911 20.1575C2.74078 20.295 1.68661 19.2408 1.82411 18.0033L2.07161 15.7483C2.29161 13.7408 3.96911 12.4575 5.74745 12.4208C5.92161 12.4117 6.11411 12.4208 6.29745 12.4392C7.07661 12.54 7.82828 12.8975 8.46078 13.5208C9.07495 14.135 9.42328 14.8592 9.52411 15.62C9.54245 15.8033 9.56078 15.9775 9.56078 16.1517Z" fill="#0066FF"/>
</svg>
