<svg width="22" height="22" viewBox="0 0 22 22" fill="none" xmlns="http://www.w3.org/2000/svg">
<g id="vuesax/bulk/profile-circle">
<g id="profile-circle">
<path id="Vector" opacity="0.4" d="M10.9999 20.1759C16.0625 20.1759 20.1666 16.0718 20.1666 11.0092C20.1666 5.94659 16.0625 1.84253 10.9999 1.84253C5.93731 1.84253 1.83325 5.94659 1.83325 11.0092C1.83325 16.0718 5.93731 20.1759 10.9999 20.1759Z" fill="#0066FF"/>
<path id="Vector_2" d="M11 6.36157C9.1025 6.36157 7.5625 7.90157 7.5625 9.79907C7.5625 11.6599 9.02 13.1724 10.9542 13.2274C10.9817 13.2274 11.0183 13.2274 11.0367 13.2274C11.055 13.2274 11.0825 13.2274 11.1008 13.2274C11.11 13.2274 11.1192 13.2274 11.1192 13.2274C12.9708 13.1632 14.4283 11.6599 14.4375 9.79907C14.4375 7.90157 12.8975 6.36157 11 6.36157Z" fill="#0066FF"/>
<path id="Vector_3" d="M17.2152 17.7466C15.5835 19.25 13.4018 20.1758 11.0002 20.1758C8.59849 20.1758 6.41682 19.25 4.78516 17.7466C5.00516 16.9125 5.60099 16.1516 6.47182 15.565C8.97432 13.8966 13.0443 13.8966 15.5285 15.565C16.4085 16.1516 16.9952 16.9125 17.2152 17.7466Z" fill="#0066FF"/>
</g>
</g>
</svg>
