<svg width="25" height="24" viewBox="0 0 25 24" fill="none" xmlns="http://www.w3.org/2000/svg">
<path d="M18.6141 22.5009C18.5251 22.5479 18.5301 22.5669 18.6191 22.5219C18.6451 22.5107 18.6689 22.4948 18.6891 22.4749C18.6891 22.4589 18.6871 22.4609 18.6141 22.5009ZM18.7921 22.4069C18.7501 22.4399 18.7501 22.4419 18.8011 22.4159C18.8291 22.4019 18.8531 22.3859 18.8531 22.3809C18.8531 22.3619 18.8411 22.3669 18.7921 22.4069ZM18.9091 22.3359C18.8671 22.3689 18.8671 22.3709 18.9181 22.3449C18.9461 22.3309 18.9701 22.3149 18.9701 22.3099C18.9701 22.2909 18.9581 22.2959 18.9091 22.3359ZM19.0261 22.2659C18.9841 22.2989 18.9841 22.3009 19.0351 22.2749C19.0631 22.2609 19.0871 22.2449 19.0871 22.2399C19.0871 22.2209 19.0751 22.2259 19.0261 22.2659ZM19.1881 22.1609C19.1061 22.2129 19.0801 22.2479 19.1531 22.2079C19.2051 22.1779 19.2891 22.1139 19.2751 22.1119C19.2444 22.1251 19.2153 22.1415 19.1881 22.1609ZM12.0147 0.00356837C11.9627 0.00856867 11.7987 0.0245696 11.6506 0.0365703C8.24244 0.343589 5.04925 2.1827 3.02713 5.00987C1.90922 6.56161 1.18258 8.36036 0.909001 10.2532C0.812996 10.9122 0.800995 11.1072 0.800995 12.0013C0.800995 12.8953 0.812996 13.0893 0.909001 13.7494C1.56104 18.2557 4.76823 22.0419 9.11749 23.445C9.89654 23.696 10.7176 23.867 11.6506 23.97C12.0147 24.01 13.5858 24.01 13.9498 23.97C15.5609 23.792 16.927 23.393 18.273 22.7059C18.4791 22.5999 18.5191 22.5719 18.4911 22.5489C17.8335 21.6801 17.1821 20.8067 16.5369 19.9288L14.6178 17.3366L12.2137 13.7784C11.4143 12.5878 10.6073 11.4023 9.79253 10.2222C9.78353 10.2202 9.77353 11.8013 9.76953 13.7314C9.76253 17.1116 9.76053 17.2476 9.71753 17.3276C9.67671 17.4211 9.60357 17.4967 9.51151 17.5406C9.43651 17.5786 9.37051 17.5856 9.01648 17.5856H8.61046L8.50246 17.5176C8.43582 17.4756 8.38161 17.4166 8.34545 17.3466L8.29644 17.2406L8.30144 12.5373L8.30844 7.83204L8.38145 7.74103C8.4305 7.6834 8.48942 7.63498 8.55546 7.59802C8.65146 7.55102 8.68947 7.54602 9.09549 7.54602C9.57452 7.54602 9.65352 7.56502 9.77853 7.70103C10.7517 9.14936 11.7168 10.6031 12.6737 12.0623C14.2318 14.4244 16.3609 17.6496 17.408 19.2337L19.3081 22.1119L19.4041 22.0489C20.3184 21.4407 21.1474 20.7133 21.8693 19.8858C23.3813 18.1553 24.3619 16.0253 24.6934 13.7514C24.7894 13.0923 24.8014 12.8973 24.8014 12.0033C24.8014 11.1092 24.7894 10.9152 24.6934 10.2552C24.0414 5.74891 20.8342 1.96269 16.4849 0.559602C15.6721 0.300834 14.8351 0.125584 13.9868 0.0365703C13.7618 0.013569 12.2107 -0.0124326 12.0167 0.00656855L12.0147 0.00356837ZM16.927 7.262C16.9829 7.29011 17.0327 7.32908 17.0734 7.37665C17.114 7.42421 17.1449 7.47941 17.164 7.53902C17.183 7.60002 17.187 8.9041 17.183 11.8433L17.176 16.0615L16.4319 14.9215L15.6859 13.7814V10.7152C15.6859 8.73309 15.6949 7.61902 15.7089 7.56502C15.7258 7.50269 15.7551 7.44439 15.795 7.39355C15.8348 7.34271 15.8844 7.30037 15.9409 7.269C16.0369 7.22 16.0719 7.215 16.4409 7.215C16.7879 7.215 16.849 7.22 16.927 7.262Z" fill="white"/>
</svg>
