<svg width="25" height="24" viewBox="0 0 25 24" fill="none" xmlns="http://www.w3.org/2000/svg">
<path d="M0.801422 12V24H24.8014V0H0.801422V12ZM20.1409 11.043C20.7507 11.1952 21.2149 11.469 21.6447 11.91C21.8637 12.144 22.1914 12.5738 22.2192 12.6795C22.2267 12.711 21.1842 13.41 20.5512 13.8007C20.5279 13.8165 20.4342 13.719 20.3322 13.566C20.0239 13.1167 19.6992 12.9217 19.2034 12.8865C18.4767 12.8392 18.0079 13.2188 18.0117 13.8555C18.0079 14.0115 18.0432 14.1683 18.1129 14.3048C18.2734 14.637 18.5742 14.8358 19.5034 15.2385C21.2224 15.9765 21.9567 16.4648 22.4134 17.1562C22.9249 17.9295 23.0382 19.164 22.6947 20.0858C22.3122 21.0818 21.3664 21.7612 20.0382 21.984C19.6279 22.0583 18.6514 22.0462 18.2097 21.9645C17.2452 21.7927 16.3309 21.3158 15.7684 20.691C15.5457 20.4487 15.1159 19.812 15.1437 19.7692C15.1557 19.7535 15.2532 19.6912 15.3627 19.6283C15.4722 19.5653 15.8742 19.3312 16.2537 19.1122L16.9452 18.7103L17.0899 18.9247C17.2932 19.233 17.7342 19.6552 18.0004 19.7955C18.7662 20.202 19.8169 20.1435 20.3367 19.6785C20.5474 19.503 20.6652 19.233 20.6494 18.96C20.6494 18.6825 20.6142 18.558 20.4694 18.3503C20.2819 18.0847 19.9032 17.8582 18.8209 17.3895C17.5827 16.854 17.0472 16.5263 16.5634 15.999C16.2589 15.651 16.0324 15.2415 15.9034 14.7997C15.8134 14.46 15.7902 13.608 15.8607 13.2682C16.1149 12.069 17.0209 11.2372 18.3214 10.9913C18.7437 10.9095 19.7277 10.9402 20.1417 11.0422L20.1409 11.043ZM14.5084 12.0472L14.5159 13.0275H11.3907V21.9067H9.17967V13.0275H6.05892V12.0668C6.05892 11.5313 6.07092 11.0865 6.08592 11.0745C6.09792 11.0588 7.99617 11.0512 10.3009 11.055L14.4964 11.067L14.5084 12.0472Z" fill="white"/>
</svg>
