<svg width="27" height="24" viewBox="0 0 27 24" fill="none" xmlns="http://www.w3.org/2000/svg">
<path d="M13.4067 9.63667C13.8669 9.6367 14.3168 9.77287 14.6998 10.028C15.0827 10.2832 15.3816 10.646 15.5589 11.0707C15.7361 11.4954 15.7837 11.963 15.6957 12.4147C15.6077 12.8664 15.3881 13.282 15.0644 13.6091C14.7408 13.9362 14.3275 14.1603 13.8768 14.2531C13.4261 14.3459 12.958 14.3032 12.5314 14.1305C12.1048 13.9578 11.7389 13.6628 11.4797 13.2826C11.2205 12.9023 11.0795 12.4539 11.0746 11.9938C11.0729 11.6859 11.132 11.3807 11.2483 11.0956C11.3646 10.8105 11.5359 10.5511 11.7525 10.3322C11.969 10.1133 12.2266 9.93925 12.5104 9.81991C12.7943 9.70057 13.0988 9.63831 13.4067 9.63667ZM7.63248 21.9709C8.41818 22.4448 10.1268 21.7214 12.1222 19.8507C11.4552 19.0928 10.8267 18.302 10.239 17.4812C9.23309 17.3685 8.23394 17.202 7.24587 16.9823C6.60983 19.6512 6.84679 21.4845 7.63248 21.9709ZM8.51795 14.8123L8.15628 14.1763C8.0153 14.5266 7.89454 14.8847 7.79461 15.2488C8.13134 15.3236 8.50548 15.386 8.89209 15.4483L8.51795 14.8123ZM16.6742 13.8645L17.6844 11.9938L16.6742 10.1231C16.3001 9.46207 15.901 8.87592 15.5393 8.28977C14.8659 8.25235 14.155 8.25235 13.4067 8.25235C12.6584 8.25235 11.9476 8.25235 11.2741 8.25235C10.9125 8.83851 10.5134 9.42466 10.1392 10.0856L9.12905 11.9938L10.1392 13.8645C10.5134 14.5255 10.9125 15.1116 11.2741 15.6978C11.9476 15.6978 12.6584 15.6978 13.4067 15.6978C14.155 15.6978 14.8659 15.6978 15.5393 15.6978C15.901 15.1116 16.3001 14.5255 16.6742 13.8645ZM13.4067 5.48371C13.1698 5.75808 12.9203 6.04492 12.6709 6.38164H14.1425C13.8931 6.04492 13.6437 5.75808 13.4067 5.48371ZM13.4067 18.5038C13.6437 18.2295 13.8931 17.9426 14.1425 17.6059H12.6709C12.9203 17.9426 13.1698 18.2295 13.4067 18.5038ZM19.1685 2.01666C18.3953 1.54275 16.6742 2.26609 14.6913 4.1368C15.3582 4.89468 15.9867 5.68553 16.5745 6.50636C17.5795 6.60254 18.5786 6.75241 19.5676 6.95533C20.2036 4.28645 19.9667 2.45316 19.1685 1.96678M18.2955 9.12535L18.6572 9.76139C18.7982 9.41109 18.9189 9.05299 19.0189 8.68885C18.6821 8.61402 18.308 8.55166 17.9214 8.48931L18.2955 9.12535ZM20.1039 0.395384C21.9372 1.44298 22.1367 4.19915 21.351 7.41677C24.5187 8.35212 26.801 9.91104 26.801 12.0062C26.801 14.1014 24.5187 15.6603 21.351 16.5957C22.1242 19.8133 21.9247 22.5695 20.1039 23.6171C18.283 24.6647 15.8012 23.4674 13.4067 21.1852C11.0122 23.4674 8.53042 24.6647 6.69713 23.6171C4.86384 22.5695 4.67677 19.8757 5.44999 16.5957C2.28226 15.6603 0 14.1014 0 12.0062C0 9.91104 2.28226 8.33965 5.44999 7.4043C4.67677 4.18668 4.87631 1.43051 6.69713 0.382912C8.51795 -0.664683 11.0122 0.532569 13.4067 2.81483C15.8012 0.532569 18.283 -0.664683 20.1039 0.382912M19.7422 11.9938C20.1753 12.9118 20.5583 13.8527 20.8896 14.8123C23.5085 14.0266 24.9802 12.9042 24.9802 11.9938C24.9802 11.0834 23.4711 9.96093 20.8896 9.17523C20.5583 10.1348 20.1753 11.0757 19.7422 11.9938ZM7.07127 11.9938C6.63814 11.0757 6.25512 10.1348 5.9239 9.17523C3.30491 9.96093 1.83329 11.0834 1.83329 11.9938C1.83329 12.9042 3.34233 14.0266 5.9239 14.8123C6.25512 13.8527 6.63814 12.9118 7.07127 11.9938ZM18.2955 14.8123L17.9214 15.4483C18.308 15.4483 18.6821 15.3236 19.0189 15.2488C18.9189 14.8847 18.7982 14.5266 18.6572 14.1763L18.2955 14.8123ZM14.6539 19.8507C16.6368 21.7214 18.3953 22.4448 19.1311 21.9709C19.8669 21.497 20.1662 19.7011 19.5302 16.9823C18.5412 17.1852 17.542 17.3351 16.537 17.4313C15.9507 18.2691 15.3221 19.0766 14.6539 19.8507ZM8.51795 9.17523L8.89209 8.53919C8.50548 8.53919 8.13134 8.66391 7.79461 8.73874C7.89454 9.10288 8.0153 9.46098 8.15628 9.81127L8.51795 9.17523ZM12.1596 4.1368C10.1392 2.26609 8.41818 1.54275 7.63248 2.01666C6.84679 2.49057 6.60983 4.28645 7.24587 7.00521C8.23486 6.80229 9.234 6.65242 10.239 6.55624C10.8375 5.71753 11.4785 4.90999 12.1596 4.1368Z" fill="white"/>
</svg>
