<svg width="25" height="24" viewBox="0 0 25 24" fill="none" xmlns="http://www.w3.org/2000/svg">
<path fill-rule="evenodd" clip-rule="evenodd" d="M16.0942 22.1496C15.5158 22.1496 15.0478 21.6793 15.0478 21.0979C15.0478 20.5164 15.5158 20.0473 16.0942 20.0473C16.6726 20.0473 17.1406 20.5164 17.1406 21.0979C17.1406 21.6793 16.6726 22.1496 16.0942 22.1496ZM12.8878 24C18.9814 24 18.601 21.3439 18.601 21.3439L18.5938 18.5924H12.7798V17.7662H20.9026C20.9026 17.7662 24.8014 18.2114 24.8014 12.0316C24.8014 5.8519 21.3994 6.06973 21.3994 6.06973H19.3678V8.93848C19.3678 8.93848 19.477 12.358 16.0198 12.358H10.2526C10.2526 12.358 7.01262 12.3066 7.01262 15.5068V20.7973C7.01262 20.7973 6.52061 24 12.8878 24ZM9.50981 1.85039C10.0882 1.85039 10.555 2.32072 10.555 2.90215C10.555 3.48357 10.0882 3.95273 9.50981 3.95273C8.93141 3.95273 8.46343 3.48357 8.46343 2.90215C8.46343 2.32072 8.93141 1.85039 9.50981 1.85039ZM12.715 0C6.62263 0 7.00302 2.65605 7.00302 2.65605L7.01024 5.40762H12.8242V6.23379H4.70021C4.70021 6.23379 0.801422 5.78864 0.801422 11.9684C0.801422 18.1481 4.20462 17.9303 4.20462 17.9303H6.23504V15.0615C6.23504 15.0615 6.12582 11.642 9.58422 11.642H15.3502C15.3502 11.642 18.5902 11.6934 18.5902 8.49316V3.20273C18.5902 3.20273 19.0822 0 12.715 0Z" fill="white"/>
</svg>
