<svg width="450" height="450" viewBox="0 0 450 450" fill="none" xmlns="http://www.w3.org/2000/svg">
<rect width="450" height="450" rx="16" fill="#000E22"/>
<path d="M155 93.0002C147.5 91.5002 105 93.0002 105 93.0002L194.5 266L148.5 357.5C148.5 357.5 187.5 359.5 207.5 357.5C213.644 356.886 216 354.5 220.5 348.5C225 342.5 255 268.5 255 268.5C255 268.5 256.5 263 255 256.5C253.5 250 194.5 138 194.5 138C194.5 138 181.5 112 177 106.5C172.5 101 168 98.5002 168 98.5002C168 98.5002 162.5 94.5002 155 93.0002Z" fill="url(#paint0_linear_426_458)"/>
<path d="M240.5 192.5C242.5 197.5 270 247.5 270 247.5L345 92H289.5C284.5 92 276.5 97.5 275 102C273.5 106.5 242.5 167.5 240.5 173C238.5 178.5 238.5 187.5 240.5 192.5Z" fill="url(#paint1_linear_426_458)"/>
<path d="M180 358L241 227C241 227 251.5 249 254 254C256.5 259 255.5 265.5 255 268C254.5 270.5 225 341.5 221 348C217 354.5 212 357 209.5 357.5C207 358 180 358 180 358Z" fill="#3888FF" fill-opacity="0.3"/>
<path d="M252.5 215.5L270 247L345 92.5H314.5L252.5 215.5Z" fill="#3888FF" fill-opacity="0.3"/>
<defs>
<linearGradient id="paint0_linear_426_458" x1="180.333" y1="92.3335" x2="180.333" y2="358.389" gradientUnits="userSpaceOnUse">
<stop stop-color="#0066FF"/>
<stop offset="1" stop-color="#00265E"/>
</linearGradient>
<linearGradient id="paint1_linear_426_458" x1="312.5" y1="92" x2="263.5" y2="220" gradientUnits="userSpaceOnUse">
<stop stop-color="#0066FF"/>
<stop offset="1" stop-color="#003D99"/>
</linearGradient>
</defs>
</svg>
