<svg width="21" height="20" viewBox="0 0 21 20" fill="none" xmlns="http://www.w3.org/2000/svg">
<path d="M19.3501 0H2.30713C1.49072 0 0.830566 0.644531 0.830566 1.44141V18.5547C0.830566 19.3516 1.49072 20 2.30713 20H19.3501C20.1665 20 20.8306 19.3516 20.8306 18.5586V1.44141C20.8306 0.644531 20.1665 0 19.3501 0ZM6.76416 17.043H3.79541V7.49609H6.76416V17.043ZM5.27979 6.19531C4.32666 6.19531 3.55713 5.42578 3.55713 4.47656C3.55713 3.52734 4.32666 2.75781 5.27979 2.75781C6.229 2.75781 6.99853 3.52734 6.99853 4.47656C6.99853 5.42188 6.229 6.19531 5.27979 6.19531ZM17.8735 17.043H14.9087V12.4023C14.9087 11.2969 14.8892 9.87109 13.3657 9.87109C11.8228 9.87109 11.5884 11.0781 11.5884 12.3242V17.043H8.62744V7.49609H11.4712V8.80078H11.5103C11.9048 8.05078 12.8735 7.25781 14.3149 7.25781C17.3188 7.25781 17.8735 9.23438 17.8735 11.8047V17.043Z" fill="white"/>
</svg>
