<svg width="20" height="20" viewBox="0 0 20 20" fill="none" xmlns="http://www.w3.org/2000/svg">
<path d="M18.3333 18.9583H1.66663C1.32496 18.9583 1.04163 18.6749 1.04163 18.3333C1.04163 17.9916 1.32496 17.7083 1.66663 17.7083H18.3333C18.675 17.7083 18.9583 17.9916 18.9583 18.3333C18.9583 18.6749 18.675 18.9583 18.3333 18.9583Z" fill="white"/>
<path opacity="0.4" d="M17.5 8.31657V18.3333H2.45837L2.50004 8.30823C2.50004 7.79989 2.73337 7.3166 3.14171 6.99994L8.97504 2.4666C9.57504 1.9916 10.425 1.9916 11.025 2.4666L12.1417 3.33325L15.8334 6.19992L16.8584 6.99994C17.2667 7.3166 17.5 7.7999 17.5 8.31657Z" fill="white"/>
<path d="M10.8333 14.1667H9.16663C8.47496 14.1667 7.91663 14.7251 7.91663 15.4167V18.3334H12.0833V15.4167C12.0833 14.7251 11.525 14.1667 10.8333 14.1667Z" fill="white"/>
<path d="M7.91663 11.4584H6.24996C5.79163 11.4584 5.41663 11.0834 5.41663 10.6251V9.37508C5.41663 8.91675 5.79163 8.54175 6.24996 8.54175H7.91663C8.37496 8.54175 8.74996 8.91675 8.74996 9.37508V10.6251C8.74996 11.0834 8.37496 11.4584 7.91663 11.4584Z" fill="white"/>
<path d="M13.75 11.4584H12.0833C11.625 11.4584 11.25 11.0834 11.25 10.6251V9.37508C11.25 8.91675 11.625 8.54175 12.0833 8.54175H13.75C14.2083 8.54175 14.5833 8.91675 14.5833 9.37508V10.6251C14.5833 11.0834 14.2083 11.4584 13.75 11.4584Z" fill="white"/>
<path d="M15.8334 6.19992L12.1417 3.33325H14.9834C15.4417 3.33325 15.8167 3.69991 15.8167 4.15824L15.8334 6.19992Z" fill="white"/>
</svg>
