<svg width="21" height="20" viewBox="0 0 21 20" fill="none" xmlns="http://www.w3.org/2000/svg">
<g clip-path="url(#clip0_293_544)">
<path d="M10.1694 1.80078C12.8413 1.80078 13.1577 1.8125 14.2085 1.85937C15.1851 1.90234 15.7124 2.06641 16.064 2.20313C16.5288 2.38281 16.8647 2.60156 17.2124 2.94922C17.564 3.30078 17.7788 3.63281 17.9585 4.09766C18.0952 4.44922 18.2593 4.98047 18.3022 5.95312C18.3491 7.00781 18.3608 7.32422 18.3608 9.99219C18.3608 12.6641 18.3491 12.9805 18.3022 14.0313C18.2593 15.0078 18.0952 15.5352 17.9585 15.8867C17.7788 16.3516 17.5601 16.6875 17.2124 17.0352C16.8608 17.3867 16.5288 17.6016 16.064 17.7813C15.7124 17.918 15.1812 18.082 14.2085 18.125C13.1538 18.1719 12.8374 18.1836 10.1694 18.1836C7.49756 18.1836 7.18115 18.1719 6.13037 18.125C5.15381 18.082 4.62647 17.918 4.2749 17.7813C3.81006 17.6016 3.47412 17.3828 3.12647 17.0352C2.7749 16.6836 2.56006 16.3516 2.38037 15.8867C2.24365 15.5352 2.07959 15.0039 2.03662 14.0313C1.98975 12.9766 1.97803 12.6602 1.97803 9.99219C1.97803 7.32031 1.98975 7.00391 2.03662 5.95312C2.07959 4.97656 2.24365 4.44922 2.38037 4.09766C2.56006 3.63281 2.77881 3.29688 3.12647 2.94922C3.47803 2.59766 3.81006 2.38281 4.2749 2.20313C4.62647 2.06641 5.15772 1.90234 6.13037 1.85937C7.18115 1.8125 7.49756 1.80078 10.1694 1.80078ZM10.1694 0C7.45459 0 7.11475 0.0117187 6.04834 0.0585938C4.98584 0.105469 4.25537 0.277344 3.62256 0.523438C2.9624 0.78125 2.40381 1.12109 1.84912 1.67969C1.29053 2.23438 0.950684 2.79297 0.692871 3.44922C0.446777 4.08594 0.274902 4.8125 0.228027 5.875C0.181152 6.94531 0.169434 7.28516 0.169434 10C0.169434 12.7148 0.181152 13.0547 0.228027 14.1211C0.274902 15.1836 0.446777 15.9141 0.692871 16.5469C0.950684 17.207 1.29053 17.7656 1.84912 18.3203C2.40381 18.875 2.9624 19.2188 3.61865 19.4727C4.25537 19.7188 4.98193 19.8906 6.04443 19.9375C7.11084 19.9844 7.45068 19.9961 10.1655 19.9961C12.8804 19.9961 13.2202 19.9844 14.2866 19.9375C15.3491 19.8906 16.0796 19.7188 16.7124 19.4727C17.3687 19.2188 17.9272 18.875 18.4819 18.3203C19.0366 17.7656 19.3804 17.207 19.6343 16.5508C19.8804 15.9141 20.0522 15.1875 20.0991 14.125C20.146 13.0586 20.1577 12.7188 20.1577 10.0039C20.1577 7.28906 20.146 6.94922 20.0991 5.88281C20.0522 4.82031 19.8804 4.08984 19.6343 3.45703C19.3882 2.79297 19.0483 2.23438 18.4897 1.67969C17.9351 1.125 17.3765 0.78125 16.7202 0.527344C16.0835 0.28125 15.3569 0.109375 14.2944 0.0625C13.2241 0.0117188 12.8843 0 10.1694 0Z" fill="white"/>
<path d="M10.1694 4.86328C7.3335 4.86328 5.03271 7.16406 5.03271 10C5.03271 12.8359 7.3335 15.1367 10.1694 15.1367C13.0054 15.1367 15.3062 12.8359 15.3062 10C15.3062 7.16406 13.0054 4.86328 10.1694 4.86328ZM10.1694 13.332C8.32959 13.332 6.8374 11.8398 6.8374 10C6.8374 8.16016 8.32959 6.66797 10.1694 6.66797C12.0093 6.66797 13.5015 8.16016 13.5015 10C13.5015 11.8398 12.0093 13.332 10.1694 13.332Z" fill="white"/>
<path d="M16.7085 4.66016C16.7085 5.32422 16.1694 5.85938 15.5093 5.85938C14.8452 5.85938 14.3101 5.32031 14.3101 4.66016C14.3101 3.99609 14.8491 3.46094 15.5093 3.46094C16.1694 3.46094 16.7085 4 16.7085 4.66016Z" fill="white"/>
</g>
<defs>
<clipPath id="clip0_293_544">
<rect width="20" height="20" fill="white" transform="translate(0.169434)"/>
</clipPath>
</defs>
</svg>
