<svg width="22" height="20" viewBox="0 0 22 20" fill="none" xmlns="http://www.w3.org/2000/svg">
<path fill-rule="evenodd" clip-rule="evenodd" d="M11.0084 0C5.38034 0 0.830566 4.58331 0.830566 10.2535C0.830566 14.786 3.74576 18.6226 7.78991 19.9805C8.29554 20.0826 8.48074 19.7599 8.48074 19.4885C8.48074 19.2508 8.46408 18.436 8.46408 17.587C5.63284 18.1983 5.04326 16.3647 5.04326 16.3647C4.58826 15.1764 3.9141 14.871 3.9141 14.871C2.98743 14.2429 3.9816 14.2429 3.9816 14.2429C5.00951 14.3108 5.54888 15.2954 5.54888 15.2954C6.45867 16.857 7.9247 16.4158 8.51449 16.1441C8.59866 15.482 8.86845 15.0237 9.15491 14.7691C6.89679 14.5314 4.52097 13.6487 4.52097 9.71017C4.52097 8.58976 4.92513 7.67309 5.56555 6.96018C5.46451 6.7056 5.11055 5.65289 5.6668 4.24394C5.6668 4.24394 6.52617 3.97228 8.46387 5.29644C9.29347 5.07199 10.149 4.95782 11.0084 4.95685C11.8678 4.95685 12.7439 5.07581 13.5528 5.29644C15.4907 3.97228 16.3501 4.24394 16.3501 4.24394C16.9063 5.65289 16.5522 6.7056 16.4511 6.96018C17.1084 7.67309 17.4959 8.58976 17.4959 9.71017C17.4959 13.6487 15.1201 14.5143 12.8451 14.7691C13.2159 15.0916 13.5359 15.7026 13.5359 16.6703C13.5359 18.0453 13.5193 19.1489 13.5193 19.4883C13.5193 19.7599 13.7047 20.0826 14.2101 19.9808C18.2542 18.6224 21.1694 14.786 21.1694 10.2535C21.1861 4.58331 16.6197 0 11.0084 0Z" fill="white"/>
</svg>
