<svg width="22" height="22" viewBox="0 0 22 22" fill="none" xmlns="http://www.w3.org/2000/svg">
<path opacity="0.4" d="M11 20.1759C16.0627 20.1759 20.1667 16.0718 20.1667 11.0092C20.1667 5.94659 16.0627 1.84253 11 1.84253C5.93743 1.84253 1.83337 5.94659 1.83337 11.0092C1.83337 16.0718 5.93743 20.1759 11 20.1759Z" fill="white"/>
<path d="M11 6.36157C9.1025 6.36157 7.5625 7.90157 7.5625 9.79907C7.5625 11.6599 9.02 13.1724 10.9542 13.2274C10.9817 13.2274 11.0183 13.2274 11.0367 13.2274C11.055 13.2274 11.0825 13.2274 11.1008 13.2274C11.11 13.2274 11.1192 13.2274 11.1192 13.2274C12.9708 13.1632 14.4283 11.6599 14.4375 9.79907C14.4375 7.90157 12.8975 6.36157 11 6.36157Z" fill="white"/>
<path d="M17.215 17.7466C15.5834 19.25 13.4017 20.1758 11 20.1758C8.59837 20.1758 6.4167 19.25 4.78503 17.7466C5.00503 16.9125 5.60087 16.1516 6.4717 15.565C8.9742 13.8966 13.0442 13.8966 15.5284 15.565C16.4084 16.1516 16.995 16.9125 17.215 17.7466Z" fill="white"/>
</svg>
