<svg width="22" height="22" viewBox="0 0 22 22" fill="none" xmlns="http://www.w3.org/2000/svg">
<path d="M19.2867 12.1734L18.4433 11.3484L11.3392 18.4434L12.1917 19.2959C12.9067 20.0109 13.6492 20.3684 14.3825 20.3684C15.1158 20.3684 15.8583 20.0109 16.5733 19.2959L19.2867 16.5826C20.7442 15.1159 20.7442 13.6401 19.2867 12.1734Z" fill="white"/>
<path d="M9.79916 2.68582C8.36 1.24665 6.8475 1.24665 5.40833 2.68582L2.68583 5.39915C1.25583 6.83832 1.25583 8.35082 2.68583 9.78999L3.52917 10.6333L10.6333 3.52915L9.79916 2.68582Z" fill="white"/>
<path opacity="0.4" d="M19.9925 3.61159C18.7917 6.60909 16.0508 10.5233 13.4383 13.0808C13.0625 10.7158 11.1742 8.86409 8.79083 8.53409C11.3575 5.91242 15.2992 3.13492 18.3058 1.92492C18.8375 1.72325 19.3692 1.87909 19.6992 2.20909C20.0475 2.55742 20.2125 3.07992 19.9925 3.61159Z" fill="white"/>
<path d="M13.4383 13.0808C12.98 13.53 12.5217 13.9425 12.0817 14.2908L10.2758 15.7392C10.0467 15.9042 9.8175 16.0417 9.56083 16.1517C9.56083 15.9775 9.5425 15.8033 9.52417 15.62C9.42333 14.8592 9.075 14.135 8.46083 13.5208C7.82833 12.8975 7.07667 12.54 6.2975 12.4392C6.11417 12.4208 5.92167 12.4117 5.7475 12.4208C5.84833 12.1367 6.00417 11.8708 6.19667 11.6508L7.62667 9.84501C7.96583 9.41418 8.36 8.97418 8.79083 8.53418C11.1742 8.86418 13.0625 10.7158 13.4383 13.0808Z" fill="white"/>
<path opacity="0.4" d="M9.56083 16.1517C9.56083 17.16 9.17583 18.1225 8.4425 18.8467C7.88333 19.415 7.13167 19.8 6.215 19.91L3.96917 20.1575C2.74083 20.295 1.68667 19.2408 1.82417 18.0033L2.07167 15.7483C2.29167 13.7408 3.96917 12.4575 5.7475 12.4208C5.92167 12.4117 6.11417 12.4208 6.2975 12.4392C7.07667 12.54 7.82833 12.8975 8.46083 13.5208C9.075 14.135 9.42333 14.8592 9.52417 15.62C9.5425 15.8033 9.56083 15.9775 9.56083 16.1517Z" fill="white"/>
</svg>
